<?xml version="1.0" encoding="UTF-8"?><svg id="Layer_1" xmlns="http://www.w3.org/2000/svg" viewBox="0 0 500 500"><defs><style>.cls-1{fill:#fff;}.cls-2{fill:#bb8c3a;}</style></defs><path d="m.16,500V.17h499.78v499.83H.16Zm492.07-7.59V8.11H8.01v484.3h484.22Z"/><path class="cls-1" d="m492.23,492.41H8.01V8.11h484.22v484.3Zm-367.19-117.42h249.86V124.99h-6.81c-46.5,0-92.99-.1-139.49.18-3.91.02-8.48,1.72-11.6,4.13-29.23,22.52-58.15,45.45-87.36,68.01-3.54,2.73-4.71,5.43-4.7,9.71.12,53.67.08,107.35.08,161.03v6.95Z"/><path d="m125.04,374.99v-6.95c0-53.68.04-107.35-.08-161.03,0-4.27,1.16-6.97,4.7-9.71,29.21-22.56,58.12-45.49,87.36-68.01,3.12-2.4,7.69-4.11,11.6-4.13,46.49-.28,92.99-.18,139.49-.18h6.81v250H125.04Zm7.96-7.93h234.02v-233.76h-140.74v71.55h-93.29v162.21Z"/><path class="cls-1" d="m133,367.06v-162.21h93.29v-71.55h140.74v233.76h-234.02Zm191.68-56.38h-148.88v7.02h148.88v-7.02Zm-55.47-41.15h-93.3v6.67h93.66c-.14-2.54-.24-4.4-.37-6.67Zm34.68,7.26c6.42,0,12.24.2,18.02-.17,1.12-.07,2.92-2.38,2.92-3.65,0-1.27-1.82-3.56-2.95-3.63-5.92-.37-11.88-.17-18-.17v7.63Z"/><path d="m324.68,310.67v7.02h-148.88v-7.02h148.88Z"/><path d="m269.21,269.52c.13,2.27.23,4.14.37,6.67h-93.66v-6.67h93.3Z"/><path d="m303.89,276.78v-7.63c6.12,0,12.08-.2,18,.17,1.13.07,2.94,2.36,2.95,3.63,0,1.27-1.8,3.58-2.92,3.65-5.78.37-11.6.17-18.02.17Z"/><polygon class="cls-2" points="218.53 136.82 218.53 198.09 141.14 198.09 218.53 136.82"/></svg>