<?xml version="1.0" encoding="UTF-8"?><svg id="Layer_1" xmlns="http://www.w3.org/2000/svg" viewBox="0 0 500 500"><defs><style>.cls-1{fill:#fff;}.cls-2{fill:#bb8c3a;}</style></defs><path d="m500.04.37v499.63H.42V.37h499.63Zm-7.78,7.77H8.19v484.08h484.08V8.15Z"/><path class="cls-1" d="m492.27,8.15v484.08H8.19V8.15h484.08Zm-226.36,351.44v-70.38c19.8,0,38.88-.09,57.96.14,2.02.02,4.37,1.56,5.95,3.05,6.77,6.36,13.31,12.96,20.16,19.7,5.67-6.36,11.05-12.9,17.04-18.82,2.15-2.12,5.73-3.75,8.74-3.89,10.1-.48,20.23-.18,30.23-.18V117.58h-171.66v70.34H94.11v171.67c9.88,0,19.4.32,28.89-.13,5.12-.24,8.45,1.57,11.57,5.35,5.04,6.1,10.51,11.85,15.47,17.37,6.75-6.46,13.24-12.22,19.17-18.51,2.98-3.16,6.02-4.18,10.21-4.16,28.44.15,56.87.08,86.49.08Z"/><path d="m265.9,359.59c-29.62,0-58.05.07-86.49-.08-4.19-.02-7.23,1-10.21,4.16-5.93,6.29-12.42,12.06-19.17,18.51-4.95-5.52-10.42-11.27-15.47-17.37-3.13-3.78-6.45-5.59-11.57-5.35-9.49.45-19.01.13-28.89.13v-171.67h140.2v-70.34h171.66v171.63c-10,0-20.13-.29-30.23.18-3.01.14-6.59,1.76-8.74,3.89-5.99,5.92-11.37,12.47-17.04,18.82-6.85-6.74-13.39-13.34-20.16-19.7-1.58-1.49-3.94-3.03-5.95-3.05-19.08-.23-38.16-.14-57.96-.14v70.38Zm-115.72,11c5.51-5.13,10.99-9.72,15.82-14.92,2.81-3.04,5.67-3.95,9.62-3.93,24.98.15,49.96.07,74.94.07h6.94v-62.75h-23.09v-93.21H101.83v155.97c8.72,0,17.14.21,25.54-.09,4.25-.15,7.21.99,9.93,4.46,4.1,5.25,8.87,9.97,12.89,14.4Z"/><path class="cls-1" d="m150.18,370.59c-4.02-4.43-8.79-9.16-12.89-14.4-2.71-3.47-5.67-4.61-9.93-4.46-8.4.29-16.82.09-25.54.09v-155.97h132.57v93.21h23.09v62.75h-6.94c-24.98,0-49.96.07-74.94-.07-3.95-.02-6.8.89-9.62,3.93-4.82,5.2-10.3,9.79-15.82,14.92Z"/><rect class="cls-2" x="242" y="125" width="156" height="156"/></svg>