<?xml version="1.0" encoding="UTF-8"?><svg id="Layer_1" xmlns="http://www.w3.org/2000/svg" viewBox="0 0 500 500"><defs><style>.cls-1{fill:#fff;}.cls-2{fill:#bb8c3a;stroke:#000;stroke-miterlimit:10;stroke-width:7.82px;}</style></defs><path d="m-.3.13v499.87h499.79V.13H-.3Zm491.93,491.93H7.4V7.72h484.23v484.35Z"/><rect class="cls-1" x="7.4" y="7.72" width="484.23" height="484.35"/><path class="cls-2" d="m116.75,202.73v-93.11h93.2v93.11h-93.2Z"/><path class="cls-2" d="m116.85,297.26h93.02v93.16h-93.02v-93.16Z"/><path d="m370.25,114.86c-23.3,23.18-45.91,45.66-69.1,68.72-9.22-8.64-18.8-17.62-28.82-27.01,1.79-1.96,3.34-3.66,5.14-5.63,7.96,7.34,15.74,14.5,24.01,22.12,20.96-21.21,41.82-42.33,63.6-64.38,2.05,2.45,3.54,4.23,5.17,6.18Z"/><path d="m370.49,294.84c2.67,2.53,4.22,3.99,5.21,4.93-23.13,23.24-45.86,46.07-68.87,69.2-8.76-8.17-18.2-16.98-28.04-26.16,1.83-2.03,3.36-3.72,5.09-5.63,7.91,7.31,15.55,14.36,23.09,21.33,21.18-21.23,42.24-42.34,63.52-63.67Z"/></svg>