<?xml version="1.0" encoding="UTF-8"?><svg id="Layer_1" xmlns="http://www.w3.org/2000/svg" viewBox="0 0 500 500"><defs><style>.cls-1{fill:#fff;}.cls-2{fill:#bb8c3a;}</style></defs><path d="m.39.23h499.74v499.77H.39V.23Zm491.87,492.24V8.25H8.03v484.22h484.23Z"/><path class="cls-1" d="m492.26,492.47H8.03V8.25h484.23v484.22Zm-202.86-157.16c-1.65-1.38-2.22-1.73-2.63-2.21-22.47-26.78-44.88-53.61-67.43-80.31-2.32-2.74-1.47-4.3.43-6.59,22.2-26.72,44.3-53.51,66.46-80.26.68-.82,1.67-1.38,3.51-2.86v39.8h92.91v-93.05h-93.32c0,12.05.15,23.74-.11,35.42-.06,2.57-.91,5.64-2.5,7.58-24.18,29.59-48.53,59.03-72.87,88.47-.56.68-1.47,1.08-3.13,2.26v-39.91h-93.04v92.95h93.68v-40.13c.87.34,1.37.38,1.59.64,23.01,27.46,45.77,55.13,69.16,82.26,5.56,6.45,7.86,12.75,7.37,21.04-.59,10.08-.14,20.21-.14,30.23h93.36v-93.13h-93.3v37.77Z"/><path d="m289.4,335.31v-37.77h93.3v93.13h-93.36c0-10.01-.45-20.15.14-30.23.48-8.29-1.81-14.59-7.37-21.04-23.39-27.12-46.15-54.8-69.16-82.26-.22-.27-.72-.3-1.59-.64v40.13h-93.68v-92.95h93.04v39.91c1.66-1.17,2.56-1.57,3.13-2.26,24.34-29.45,48.7-58.89,72.87-88.47,1.59-1.94,2.44-5.01,2.5-7.58.26-11.68.11-23.37.11-35.42h93.32v93.05h-92.91v-39.8c-1.85,1.48-2.84,2.04-3.51,2.86-22.16,26.75-44.27,53.54-66.46,80.26-1.9,2.29-2.75,3.85-.43,6.59,22.56,26.7,44.97,53.53,67.43,80.31.41.48.97.83,2.63,2.21Z"/><rect class="cls-2" x="295.83" y="115.96" width="80.83" height="80.83"/><rect class="cls-2" x="123.74" y="209.83" width="80.83" height="80.83"/><rect class="cls-2" x="295.83" y="303.7" width="80.83" height="80.83"/></svg>