<?xml version="1.0" encoding="UTF-8"?><svg id="Layer_1" xmlns="http://www.w3.org/2000/svg" viewBox="0 0 500 500"><defs><style>.cls-1{fill:#fff;}.cls-2{fill:none;stroke:#000;stroke-miterlimit:10;stroke-width:6px;}.cls-3{fill:#bb8c3a;}</style></defs><g><rect class="cls-1" x="3.5" y="3.5" width="493" height="493"/><path d="m493,7v486H7V7h486m7-7H0v500h500V0h0Z"/></g><g><rect class="cls-3" x="125.4" y="125.4" width="249.21" height="249.21"/><path d="m372.21,127.79v244.42H127.79V127.79h244.42m4.79-4.79H123v254h254V123h0Z"/></g><g><rect class="cls-1" x="184.28" y="184.28" width="131.44" height="131.44"/><path d="m313.33,186.67v126.65h-126.65v-126.65h126.65m4.79-4.79h-136.24v136.24h136.24v-136.24h0Z"/></g><g><rect class="cls-3" x="224.69" y="224.69" width="50.63" height="50.63"/><path d="m272.92,227.08v45.83h-45.83v-45.83h45.83m4.79-4.79h-55.42v55.42h55.42v-55.42h0Z"/></g><line class="cls-2" x1="250" y1="250" x2="418.5" y2="81.5"/><polyline class="cls-2" points="438.39 96.07 397.78 101.58 406.73 61.58"/></svg>